<?xml version="1.0" standalone="no"?>
<!DOCTYPE svg PUBLIC "-//W3C//DTD SVG 20010904//EN"
 "http://www.w3.org/TR/2001/REC-SVG-20010904/DTD/svg10.dtd">
<svg version="1.0" xmlns="http://www.w3.org/2000/svg"
 width="429.000000pt" height="230.000000pt" viewBox="0 0 429.000000 230.000000"
 preserveAspectRatio="xMidYMid meet">

<g transform="translate(0.000000,230.000000) scale(0.100000,-0.100000)"
fill="#000000" stroke="none">
<path d="M1038 1784 c-199 -48 -366 -219 -414 -421 -20 -85 -14 -215 13 -294
56 -166 196 -305 362 -362 79 -27 218 -33 304 -13 187 44 348 187 409 364 33
97 33 269 -1 362 -85 233 -296 381 -541 379 -41 0 -101 -7 -132 -15z m17 -122
c0 -7 -27 -24 -59 -37 -101 -41 -177 -117 -212 -212 -22 -59 -32 -72 -43 -54
-19 30 30 131 97 204 30 32 72 62 117 84 71 34 100 38 100 15z m25 -90 c0 -12
-16 -23 -51 -35 -63 -23 -124 -82 -155 -153 -23 -52 -36 -64 -49 -44 -8 13 28
94 61 137 38 51 133 109 182 112 6 1 12 -7 12 -17z m27 -89 c3 -7 -13 -19 -34
-28 -50 -21 -100 -70 -114 -112 -10 -31 -27 -42 -42 -27 -9 9 19 71 48 110 25
32 99 75 124 71 8 -1 16 -7 18 -14z m143 -115 c54 -37 75 -73 75 -128 0 -55
-21 -91 -76 -128 -61 -42 -150 -20 -203 51 -27 37 -27 117 0 155 34 45 82 72
129 72 27 0 54 -8 75 -22z m182 -204 c11 -10 -15 -73 -44 -108 -32 -39 -110
-81 -134 -72 -25 9 -13 22 46 53 45 24 59 38 80 80 23 48 38 61 52 47z m94
-28 c9 -23 -31 -101 -76 -150 -41 -45 -128 -96 -162 -96 -37 0 -17 31 35 54
75 33 113 69 147 142 31 64 46 77 56 50z m87 -41 c-8 -111 -178 -280 -289
-288 -48 -3 -34 22 27 47 119 48 186 123 233 259 9 28 31 14 29 -18z"/>
<path d="M2027 1749 c-107 -54 -129 -79 -109 -124 13 -28 58 -44 75 -25 9 9 7
15 -10 27 -13 9 -23 22 -23 30 0 16 123 76 128 62 2 -5 -8 -60 -22 -122 -38
-168 -38 -226 -1 -262 63 -64 138 -7 223 166 61 124 105 267 89 287 -17 21
-31 -3 -62 -98 -34 -107 -108 -257 -145 -299 -56 -61 -97 -29 -86 68 4 31 22
117 40 191 18 74 31 138 29 143 -8 13 -27 6 -126 -44z"/>
<path d="M3226 1742 c-3 -5 -30 -73 -60 -151 -53 -137 -92 -206 -123 -218 -40
-16 -32 45 27 187 16 40 30 74 30 76 0 2 -11 4 -24 4 -20 0 -28 -12 -56 -77
-18 -43 -41 -91 -53 -108 -31 -46 -79 -95 -88 -89 -4 2 8 50 27 105 22 63 33
111 30 125 -10 37 -49 58 -98 51 -23 -3 -50 -2 -59 3 -23 13 -32 -1 -65 -90
-38 -106 -98 -190 -137 -190 -17 0 -19 5 -15 38 3 21 18 67 33 102 42 103 42
104 11 98 -15 -3 -30 0 -34 7 -10 18 -47 35 -74 35 -60 0 -146 -88 -169 -174
-32 -118 52 -195 149 -136 32 20 32 20 52 0 21 -21 56 -26 80 -10 9 5 19 5 27
-2 19 -15 42 -3 54 29 49 135 67 171 97 205 37 41 84 52 96 23 3 -9 -8 -56
-25 -104 -17 -51 -29 -104 -27 -123 3 -29 7 -33 37 -36 25 -3 40 3 62 24 l29
27 20 -26 c24 -31 55 -34 88 -11 21 15 25 15 41 0 24 -22 63 -20 95 5 l27 22
15 -22 c23 -33 67 -27 113 15 l40 35 12 -23 c7 -13 19 -28 28 -35 24 -19 82
-15 119 7 32 20 32 20 52 0 34 -34 68 -26 119 28 56 58 76 94 66 119 -6 16
-11 13 -38 -22 -117 -147 -150 -129 -83 48 32 84 32 105 0 93 -8 -3 -17 1 -20
8 -8 22 -61 39 -96 32 -50 -10 -90 -48 -131 -123 -51 -93 -108 -159 -130 -150
-15 6 -12 20 27 129 24 68 53 147 65 176 26 66 26 74 -1 70 -19 -2 -31 -25
-74 -138 -53 -136 -117 -240 -149 -240 -25 0 -18 34 45 202 33 89 60 165 60
170 0 11 -37 10 -44 0z m-706 -142 c62 -33 6 -194 -80 -230 -93 -38 -95 116
-3 201 23 22 41 33 61 38 2 1 12 -4 22 -9z m1083 -3 c10 -6 20 -28 23 -47 7
-47 -38 -137 -85 -167 -40 -27 -50 -28 -76 -9 -47 34 4 179 76 218 40 21 40
21 62 5z"/>
<path d="M3080 1725 c-19 -23 -8 -50 20 -50 16 0 26 6 28 18 4 18 -14 47 -28
47 -4 0 -13 -7 -20 -15z"/>
<path d="M2213 1208 c-13 -6 -23 -14 -23 -17 0 -3 -7 -14 -14 -24 -13 -17 -17
-17 -80 -1 -80 20 -127 13 -156 -23 -41 -52 -11 -128 48 -121 34 4 40 30 10
43 -13 6 -24 20 -26 32 -5 38 39 48 116 28 71 -20 69 -6 22 -135 -24 -66 -32
-79 -74 -106 -62 -41 -95 -73 -113 -108 -43 -82 62 -133 118 -56 12 16 35 57
50 92 l28 63 81 34 c44 19 82 32 85 30 2 -3 -7 -41 -20 -84 -31 -99 -31 -117
-2 -151 20 -22 28 -25 56 -19 18 4 48 22 66 41 38 38 45 41 45 20 0 -8 12 -24
26 -35 37 -29 94 -28 131 3 15 13 42 25 58 28 17 3 37 8 45 11 10 4 22 -5 35
-26 25 -40 63 -46 109 -18 30 19 35 19 46 6 7 -8 28 -15 48 -15 47 0 100 55
164 170 55 97 63 93 56 -31 -5 -91 -21 -120 -55 -98 -26 15 -55 5 -47 -16 8
-20 56 -45 85 -45 30 0 84 35 110 71 l21 30 18 -29 c27 -44 59 -62 108 -62 59
0 106 24 146 74 51 63 61 85 40 93 -13 5 -25 -3 -43 -28 -64 -84 -116 -112
-170 -89 -29 12 -56 54 -46 71 4 5 29 9 57 9 91 0 143 42 141 116 -1 43 -15
60 -59 74 -69 23 -132 -20 -177 -120 -14 -30 -39 -71 -55 -90 l-31 -35 -1 112
c0 88 -3 115 -16 127 -34 34 -49 20 -123 -117 -47 -85 -103 -151 -123 -145
-26 9 -18 55 26 156 38 86 43 104 30 109 -23 8 -38 -12 -78 -108 -44 -102 -89
-161 -120 -157 -34 5 -32 54 8 154 42 102 43 114 16 114 -13 0 -24 -10 -31
-27 -42 -112 -106 -211 -124 -191 -1 2 2 29 8 60 14 80 -2 134 -47 153 -68 29
-120 -7 -175 -118 -44 -89 -109 -164 -135 -154 -23 9 -20 37 15 143 29 87 36
98 75 125 86 59 122 143 73 169 -45 25 -95 -21 -132 -120 -16 -43 -20 -46
-100 -77 -45 -18 -85 -33 -89 -33 -4 0 6 35 22 78 27 75 29 77 66 83 62 10 87
72 42 103 -26 18 -34 19 -65 4z m34 -55 c-9 -9 -19 -14 -23 -11 -10 10 6 28
24 28 15 0 15 -1 -1 -17z m203 -33 c0 -12 -61 -82 -67 -76 -9 8 40 86 54 86 7
0 13 -4 13 -10z m1001 -150 c25 -14 25 -61 0 -84 -18 -17 -131 -36 -131 -22 0
22 32 76 55 94 31 24 47 27 76 12z m-887 -17 c-17 -38 -16 -133 1 -159 16 -24
15 -27 -1 -45 -21 -23 -57 -25 -78 -3 -33 32 -9 144 41 196 30 32 49 37 37 11z
m51 -110 c-3 -13 -10 -21 -15 -18 -14 8 -12 58 2 92 l12 28 4 -39 c2 -22 1
-50 -3 -63z m-580 -45 c-23 -43 -45 -68 -62 -68 -25 0 -13 32 27 73 46 46 59
44 35 -5z"/>
</g>
</svg>
